<svg width="333" height="274" viewBox="0 0 333 274" fill="none" xmlns="http://www.w3.org/2000/svg">
<path d="M55.7969 274C46.7446 274 40.9517 264.359 45.2014 256.367L108.667 137H320.029C329.081 137 334.874 146.641 330.625 154.633L270.544 267.633C268.461 271.551 264.386 274 259.949 274H55.7969Z" fill="#334155"/>
<path d="M73.0512 0C68.6139 0 64.5388 2.44863 62.4557 6.36655L2.37541 119.367C-1.87421 127.359 3.91865 137 12.9709 137H108.667H217.123C221.56 137 225.635 134.551 227.718 130.633L287.799 17.6334C292.048 9.64069 286.255 0 277.203 0H73.0512Z" fill="#334155"/>
</svg>
